<svg width="102" height="37" viewBox="0 0 102 37" fill="none" xmlns="http://www.w3.org/2000/svg">
<path d="M5.22838 10.8834C8.11594 10.8834 10.4568 8.54964 10.4568 5.67088C10.4568 2.79212 8.11594 0.458435 5.22838 0.458435C2.34082 0.458435 0 2.79212 0 5.67088C0 8.54964 2.34082 10.8834 5.22838 10.8834Z" fill="url(#paint0_linear_0_1)"/>
<path d="M35.5095 10.8834C38.397 10.8834 40.7378 8.54964 40.7378 5.67088C40.7378 2.79212 38.397 0.458435 35.5095 0.458435C32.6219 0.458435 30.2811 2.79212 30.2811 5.67088C30.2811 8.54964 32.6219 10.8834 35.5095 10.8834Z" fill="url(#paint1_linear_0_1)"/>
<path d="M65.7905 10.8834C68.6781 10.8834 71.0189 8.54964 71.0189 5.67088C71.0189 2.79212 68.6781 0.458435 65.7905 0.458435C62.903 0.458435 60.5621 2.79212 60.5621 5.67088C60.5621 8.54964 62.903 10.8834 65.7905 10.8834Z" fill="url(#paint2_linear_0_1)"/>
<path d="M96.0716 10.8834C98.9592 10.8834 101.3 8.54964 101.3 5.67088C101.3 2.79212 98.9592 0.458435 96.0716 0.458435C93.184 0.458435 90.8432 2.79212 90.8432 5.67088C90.8432 8.54964 93.184 10.8834 96.0716 10.8834Z" fill="url(#paint3_linear_0_1)"/>
<path d="M5.22838 37C8.11594 37 10.4568 34.6663 10.4568 31.7875C10.4568 28.9088 8.11594 26.575 5.22838 26.575C2.34082 26.575 0 28.9088 0 31.7875C0 34.6663 2.34082 37 5.22838 37Z" fill="url(#paint4_linear_0_1)"/>
<path d="M35.5095 37C38.397 37 40.7378 34.6663 40.7378 31.7875C40.7378 28.9088 38.397 26.575 35.5095 26.575C32.6219 26.575 30.2811 28.9088 30.2811 31.7875C30.2811 34.6663 32.6219 37 35.5095 37Z" fill="url(#paint5_linear_0_1)"/>
<path d="M65.7905 37C68.6781 37 71.0189 34.6663 71.0189 31.7875C71.0189 28.9088 68.6781 26.575 65.7905 26.575C62.903 26.575 60.5621 28.9088 60.5621 31.7875C60.5621 34.6663 62.903 37 65.7905 37Z" fill="url(#paint6_linear_0_1)"/>
<path d="M96.0716 37C98.9592 37 101.3 34.6663 101.3 31.7875C101.3 28.9088 98.9592 26.575 96.0716 26.575C93.184 26.575 90.8432 28.9088 90.8432 31.7875C90.8432 34.6663 93.184 37 96.0716 37Z" fill="url(#paint7_linear_0_1)"/>
<defs>
<linearGradient id="paint0_linear_0_1" x1="54.996" y1="131.592" x2="-16.4057" y2="-50.2115" gradientUnits="userSpaceOnUse">
<stop stop-color="white"/>
<stop offset="1" stop-color="white"/>
</linearGradient>
<linearGradient id="paint1_linear_0_1" x1="85.2771" y1="131.592" x2="13.8755" y2="-50.2116" gradientUnits="userSpaceOnUse">
<stop stop-color="white"/>
<stop offset="1" stop-color="white"/>
</linearGradient>
<linearGradient id="paint2_linear_0_1" x1="115.558" y1="131.592" x2="44.1566" y2="-50.2116" gradientUnits="userSpaceOnUse">
<stop stop-color="white"/>
<stop offset="1" stop-color="white"/>
</linearGradient>
<linearGradient id="paint3_linear_0_1" x1="145.839" y1="131.592" x2="74.4376" y2="-50.2116" gradientUnits="userSpaceOnUse">
<stop stop-color="white"/>
<stop offset="1" stop-color="white"/>
</linearGradient>
<linearGradient id="paint4_linear_0_1" x1="54.996" y1="157.709" x2="-16.4057" y2="-24.095" gradientUnits="userSpaceOnUse">
<stop stop-color="white"/>
<stop offset="1" stop-color="white"/>
</linearGradient>
<linearGradient id="paint5_linear_0_1" x1="85.2771" y1="157.709" x2="13.8755" y2="-24.095" gradientUnits="userSpaceOnUse">
<stop stop-color="white"/>
<stop offset="1" stop-color="white"/>
</linearGradient>
<linearGradient id="paint6_linear_0_1" x1="115.558" y1="157.709" x2="44.1566" y2="-24.095" gradientUnits="userSpaceOnUse">
<stop stop-color="white"/>
<stop offset="1" stop-color="white"/>
</linearGradient>
<linearGradient id="paint7_linear_0_1" x1="145.839" y1="157.709" x2="74.4376" y2="-24.095" gradientUnits="userSpaceOnUse">
<stop stop-color="white"/>
<stop offset="1" stop-color="white"/>
</linearGradient>
</defs>
</svg>
