<svg width="48" height="48" viewBox="0 0 48 48" fill="none" xmlns="http://www.w3.org/2000/svg">
<rect width="48" height="48" rx="24" fill="#FFE8B9"/>
<path d="M33.9082 25.5517L16.4975 25.5517L20.3225 29.4819C20.8501 30.024 20.8501 30.8371 20.3225 31.3792C19.7949 31.9213 19.0035 31.9213 18.4759 31.3792L12.4086 25.1451C11.881 24.6031 11.881 23.7899 12.4086 23.2478L18.4759 17.0138C19.0035 16.4717 19.7949 16.4717 20.3225 17.0138C20.8501 17.5559 20.8501 18.369 20.3225 18.9111L16.4975 22.8413L33.9082 22.8413C34.5677 22.8413 35.2272 23.3833 35.2272 24.1965C35.2272 25.0096 34.5677 25.5517 33.9082 25.5517Z" fill="#DAA53A"/>
</svg>
