<svg width="48" height="48" viewBox="0 0 48 48" fill="none" xmlns="http://www.w3.org/2000/svg">
<rect width="48" height="48" rx="24" fill="url(#paint0_linear_0_1)"/>
<path d="M14.0918 25.5517L31.5025 25.5517L27.6775 29.4819C27.1499 30.024 27.1499 30.8371 27.6775 31.3792C28.2051 31.9213 28.9965 31.9213 29.5241 31.3792L35.5914 25.1451C36.119 24.6031 36.119 23.7899 35.5914 23.2478L29.5241 17.0138C28.9965 16.4717 28.2051 16.4717 27.6775 17.0138C27.1499 17.5559 27.1499 18.369 27.6775 18.9111L31.5025 22.8413L14.0918 22.8413C13.4323 22.8413 12.7728 23.3833 12.7728 24.1965C12.7728 25.0096 13.4323 25.5517 14.0918 25.5517Z" fill="#233348"/>
<defs>
<linearGradient id="paint0_linear_0_1" x1="24" y1="0" x2="24" y2="48" gradientUnits="userSpaceOnUse">
<stop stop-color="#FFBD37" stop-opacity="0.58"/>
<stop offset="1" stop-color="#FFBD37"/>
</linearGradient>
</defs>
</svg>
